<svg xmlns="http://www.w3.org/2000/svg" width="200" height="200" viewBox="0 0 200 200">
<path stroke="none" fill="black" fill-rule="evenodd" d="M 216.998 -17.7384 C 218.711 -16.0671, 218.211 -13.3569, 218.459 -11.1753L217.486 217.472 217.486 217.472 C 215.392 218.936, 212.621 218.49, 210.195 218.713L-17.3893 217.561 -17.3893 217.561 C -18.9115 215.583, -18.4776 212.855, -18.7029 210.501L-18.6943 -11.5193 -18.6943 -11.5193 C -18.4816 -13.5173, -18.7948 -15.8579, -17.4427 -17.5104L216.998 -17.7384 M 148.681 51.7685 C 117.123 48.7981, 83.7098 49.5172, 51.888 51.3524 C 49.4229 83.092, 49.1552 116.714, 51.5602 148.516 C 83.3431 150.803, 116.542 150.739, 148.362 148.584 C 151.058 116.914, 150.526 83.6409, 148.681 51.7685Z" /></svg>
